<svg width="118" height="118" viewBox="0 0 118 118" fill="none" xmlns="http://www.w3.org/2000/svg">
<rect width="118" height="118" rx="12" fill="#1CB982"/>
<path d="M31.7129 91.0176C31.7129 87.9577 32.543 85.8092 34.2031 84.5723C35.8958 83.3353 37.9303 82.7168 40.3066 82.7168C42.6178 82.7168 44.6035 83.3353 46.2637 84.5723C47.9564 85.8092 48.8027 87.9577 48.8027 91.0176C48.8027 93.9473 47.9564 96.0632 46.2637 97.3652C44.6035 98.6673 42.6178 99.3184 40.3066 99.3184C37.9303 99.3184 35.8958 98.6673 34.2031 97.3652C32.543 96.0632 31.7129 93.9473 31.7129 91.0176Z" fill="black" fill-opacity="0.8"/>
<path d="M77.2207 22.0234V39.6992C77.2207 41.75 77.1556 43.7845 77.0254 45.8027C76.9277 47.821 76.7975 49.3835 76.6348 50.4902H77.2207C78.653 48.2441 80.6061 46.3398 83.0801 44.7773C85.554 43.1823 88.7604 42.3848 92.6992 42.3848C98.819 42.3848 103.783 44.7773 107.592 49.5625C111.4 54.3477 113.305 61.3626 113.305 70.6074C113.305 76.8249 112.426 82.0495 110.668 86.2812C108.91 90.4805 106.452 93.6543 103.295 95.8027C100.137 97.9186 96.4753 98.9766 92.3086 98.9766C88.3047 98.9766 85.1471 98.2604 82.8359 96.8281C80.5247 95.3958 78.653 93.7845 77.2207 91.9941H76.1953L73.7051 98H62.3281V22.0234H77.2207ZM87.9141 54.2988C85.3099 54.2988 83.2428 54.8359 81.7129 55.9102C80.1829 56.9844 79.0599 58.5957 78.3438 60.7441C77.6602 62.8926 77.2858 65.6107 77.2207 68.8984V70.5098C77.2207 75.8158 78.002 79.8848 79.5645 82.7168C81.127 85.5163 83.9753 86.916 88.1094 86.916C91.1693 86.916 93.5944 85.5 95.3848 82.668C97.2077 79.8359 98.1191 75.7507 98.1191 70.4121C98.1191 65.0736 97.2077 61.0534 95.3848 58.3516C93.5618 55.6497 91.0716 54.2988 87.9141 54.2988Z" fill="white"/>
</svg>
