<svg width="160" height="160" viewBox="0 0 160 160" fill="none" xmlns="http://www.w3.org/2000/svg">
<rect width="160" height="160" rx="12" fill="white"/>
<path d="M23.6777 43.0234V61.334C23.6777 63.4499 23.6126 65.5332 23.4824 67.584C23.3848 69.6022 23.2871 71.181 23.1895 72.3203H23.6777C25.1426 69.9766 27.1771 68.0072 29.7812 66.4121C32.418 64.7845 35.7871 63.9707 39.8887 63.9707C46.3014 63.9707 51.4609 66.3307 55.3672 71.0508C59.2734 75.7383 61.2266 82.6882 61.2266 91.9004C61.2266 98.0202 60.3314 103.163 58.541 107.33C56.7507 111.497 54.2279 114.654 50.9727 116.803C47.75 118.919 43.9577 119.977 39.5957 119.977C35.4941 119.977 32.1738 119.228 29.6348 117.73C27.1283 116.201 25.1589 114.426 23.7266 112.408H22.8965L20.7969 119H12.2031V43.0234H23.6777ZM36.8613 73.2969C33.6061 73.2969 31.0182 73.9479 29.0977 75.25C27.2096 76.5521 25.8424 78.5052 24.9961 81.1094C24.1497 83.681 23.7103 86.9525 23.6777 90.9238V91.9492C23.6777 97.9714 24.6217 102.577 26.5098 105.768C28.4303 108.958 31.9134 110.553 36.959 110.553C40.9629 110.553 44.0391 108.941 46.1875 105.719C48.3359 102.464 49.4102 97.8086 49.4102 91.7539C49.4102 85.6341 48.3359 81.028 46.1875 77.9355C44.0716 74.8431 40.9629 73.2969 36.8613 73.2969ZM63.8477 112.945C63.8477 110.276 64.5312 108.404 65.8984 107.33C67.2982 106.223 68.9909 105.67 70.9766 105.67C72.9622 105.67 74.6549 106.223 76.0547 107.33C77.487 108.404 78.2031 110.276 78.2031 112.945C78.2031 115.549 77.487 117.438 76.0547 118.609C74.6549 119.749 72.9622 120.318 70.9766 120.318C68.9909 120.318 67.2982 119.749 65.8984 118.609C64.5312 117.438 63.8477 115.549 63.8477 112.945Z" fill="#1CB982"/>
<path d="M95.4238 64.9473V119H83.9492V64.9473H95.4238ZM89.7598 44.2441C91.5176 44.2441 93.0312 44.7161 94.3008 45.6602C95.6029 46.6042 96.2539 48.2318 96.2539 50.543C96.2539 52.8216 95.6029 54.4492 94.3008 55.4258C93.0312 56.3698 91.5176 56.8418 89.7598 56.8418C87.9368 56.8418 86.3906 56.3698 85.1211 55.4258C83.8841 54.4492 83.2656 52.8216 83.2656 50.543C83.2656 48.2318 83.8841 46.6042 85.1211 45.6602C86.3906 44.7161 87.9368 44.2441 89.7598 44.2441ZM150.73 91.8516C150.73 96.3438 150.145 100.331 148.973 103.814C147.801 107.298 146.092 110.243 143.846 112.652C141.6 115.029 138.898 116.852 135.74 118.121C132.583 119.358 129.018 119.977 125.047 119.977C121.336 119.977 117.934 119.358 114.842 118.121C111.749 116.852 109.064 115.029 106.785 112.652C104.539 110.243 102.798 107.298 101.561 103.814C100.324 100.331 99.7051 96.3438 99.7051 91.8516C99.7051 85.8945 100.73 80.849 102.781 76.7148C104.865 72.5482 107.827 69.3743 111.668 67.1934C115.509 65.0124 120.083 63.9219 125.389 63.9219C130.369 63.9219 134.764 65.0124 138.572 67.1934C142.381 69.3743 145.359 72.5482 147.508 76.7148C149.656 80.8815 150.73 85.9271 150.73 91.8516ZM111.521 91.8516C111.521 95.7904 111.993 99.1595 112.938 101.959C113.914 104.758 115.411 106.907 117.43 108.404C119.448 109.869 122.052 110.602 125.242 110.602C128.432 110.602 131.036 109.869 133.055 108.404C135.073 106.907 136.554 104.758 137.498 101.959C138.442 99.1595 138.914 95.7904 138.914 91.8516C138.914 87.9128 138.442 84.5762 137.498 81.8418C136.554 79.0749 135.073 76.9753 133.055 75.543C131.036 74.0781 128.416 73.3457 125.193 73.3457C120.441 73.3457 116.974 74.9408 114.793 78.1309C112.612 81.321 111.521 85.8945 111.521 91.8516Z" fill="black" fill-opacity="0.8"/>
</svg>
